<svg width="1403" height="488" viewBox="0 0 1403 488" fill="none" xmlns="http://www.w3.org/2000/svg">
<path d="M20 117L68.5 32.9956L165.5 32.9956L214 117L165.5 201.004L68.5 201.004L20 117Z" stroke="#0D5FAA" stroke-width="13"/>
<path d="M167 203L215.5 118.996L312.5 118.996L361 203L312.5 287.004L215.5 287.004L167 203Z" stroke="#0D5FAA" stroke-width="13"/>
<path d="M167 371L215.5 286.996L312.5 286.996L361 371L312.5 455.004L215.5 455.004L167 371Z" stroke="#0D5FAA" stroke-width="13"/>
<path d="M312 287L360.5 202.996L457.5 202.996L506 287L457.5 371.004L360.5 371.004L312 287Z" stroke="#0D5FAA" stroke-width="13"/>
<path d="M456 203L504.5 118.996L601.5 118.996L650 203L601.5 287.004L504.5 287.004L456 203Z" stroke="#0D5FAA" stroke-width="13"/>
<path d="M694.92 188.455L727.739 281.511H729.034L761.852 188.455H775.886L735.295 299H721.477L680.886 188.455H694.92ZM818.42 300.727C810.432 300.727 803.541 298.964 797.747 295.438C791.99 291.875 787.545 286.909 784.415 280.54C781.32 274.134 779.773 266.686 779.773 258.193C779.773 249.701 781.32 242.216 784.415 235.739C787.545 229.225 791.9 224.152 797.477 220.517C803.091 216.847 809.64 215.011 817.125 215.011C821.443 215.011 825.707 215.731 829.918 217.17C834.128 218.61 837.96 220.949 841.415 224.188C844.869 227.39 847.622 231.636 849.673 236.926C851.724 242.216 852.75 248.729 852.75 256.466V261.864H788.841V250.852H839.795C839.795 246.174 838.86 242 836.989 238.33C835.153 234.659 832.527 231.762 829.108 229.639C825.725 227.516 821.731 226.455 817.125 226.455C812.051 226.455 807.661 227.714 803.955 230.233C800.284 232.716 797.459 235.955 795.48 239.949C793.501 243.943 792.511 248.225 792.511 252.795V260.136C792.511 266.398 793.591 271.705 795.75 276.06C797.945 280.378 800.986 283.67 804.872 285.938C808.759 288.169 813.275 289.284 818.42 289.284C821.767 289.284 824.79 288.816 827.489 287.881C830.223 286.909 832.58 285.47 834.56 283.562C836.539 281.619 838.068 279.208 839.148 276.33L851.455 279.784C850.159 283.958 847.982 287.629 844.923 290.795C841.865 293.926 838.086 296.373 833.588 298.136C829.09 299.864 824.034 300.727 818.42 300.727ZM872.128 299V216.091H884.435V228.614H885.298C886.81 224.511 889.545 221.183 893.503 218.628C897.461 216.073 901.923 214.795 906.889 214.795C907.825 214.795 908.994 214.813 910.398 214.849C911.801 214.885 912.863 214.939 913.582 215.011V227.966C913.151 227.858 912.161 227.696 910.614 227.48C909.102 227.228 907.501 227.102 905.81 227.102C901.779 227.102 898.181 227.948 895.014 229.639C891.884 231.295 889.401 233.598 887.565 236.548C885.766 239.463 884.866 242.792 884.866 246.534V299H872.128ZM987.41 234.659L975.967 237.898C975.247 235.991 974.185 234.137 972.782 232.338C971.415 230.503 969.543 228.991 967.168 227.804C964.793 226.616 961.753 226.023 958.046 226.023C952.972 226.023 948.744 227.192 945.362 229.531C942.015 231.834 940.342 234.767 940.342 238.33C940.342 241.496 941.493 243.997 943.796 245.832C946.099 247.668 949.698 249.197 954.592 250.42L966.898 253.443C974.311 255.242 979.835 257.995 983.469 261.702C987.104 265.372 988.921 270.104 988.921 275.898C988.921 280.648 987.554 284.894 984.819 288.636C982.12 292.379 978.342 295.33 973.484 297.489C968.626 299.648 962.976 300.727 956.535 300.727C948.078 300.727 941.079 298.892 935.538 295.222C929.996 291.551 926.487 286.189 925.012 279.136L937.103 276.114C938.254 280.576 940.432 283.922 943.634 286.153C946.873 288.384 951.101 289.5 956.319 289.5C962.256 289.5 966.97 288.241 970.461 285.722C973.987 283.167 975.751 280.108 975.751 276.545C975.751 273.667 974.743 271.256 972.728 269.312C970.713 267.333 967.618 265.858 963.444 264.886L949.626 261.648C942.033 259.848 936.455 257.06 932.893 253.281C929.366 249.467 927.603 244.699 927.603 238.977C927.603 234.299 928.916 230.161 931.543 226.562C934.206 222.964 937.823 220.139 942.393 218.088C946.999 216.037 952.217 215.011 958.046 215.011C966.251 215.011 972.692 216.811 977.37 220.409C982.084 224.008 985.431 228.758 987.41 234.659ZM1008.1 299V216.091H1020.84V299H1008.1ZM1014.57 202.273C1012.09 202.273 1009.95 201.427 1008.15 199.736C1006.39 198.045 1005.51 196.011 1005.51 193.636C1005.51 191.261 1006.39 189.228 1008.15 187.537C1009.95 185.846 1012.09 185 1014.57 185C1017.06 185 1019.18 185.846 1020.94 187.537C1022.74 189.228 1023.64 191.261 1023.64 193.636C1023.64 196.011 1022.74 198.045 1020.94 199.736C1019.18 201.427 1017.06 202.273 1014.57 202.273ZM1045.89 299V188.455H1083.25C1091.92 188.455 1099.01 190.02 1104.51 193.151C1110.06 196.245 1114.16 200.438 1116.82 205.727C1119.48 211.017 1120.81 216.919 1120.81 223.432C1120.81 229.945 1119.48 235.865 1116.82 241.19C1114.19 246.516 1110.13 250.762 1104.62 253.929C1099.12 257.06 1092.06 258.625 1083.46 258.625H1056.69V246.75H1083.03C1088.97 246.75 1093.74 245.724 1097.33 243.673C1100.93 241.622 1103.54 238.851 1105.16 235.361C1106.82 231.834 1107.64 227.858 1107.64 223.432C1107.64 219.006 1106.82 215.047 1105.16 211.557C1103.54 208.066 1100.92 205.331 1097.28 203.352C1093.65 201.337 1088.82 200.33 1082.81 200.33H1059.28V299H1045.89ZM1165.05 300.943C1159.8 300.943 1155.03 299.954 1150.75 297.974C1146.46 295.959 1143.06 293.062 1140.54 289.284C1138.02 285.47 1136.76 280.864 1136.76 275.466C1136.76 270.716 1137.7 266.866 1139.57 263.915C1141.44 260.928 1143.94 258.589 1147.07 256.898C1150.21 255.206 1153.66 253.947 1157.44 253.119C1161.25 252.256 1165.08 251.572 1168.94 251.068C1173.97 250.42 1178.06 249.935 1181.19 249.611C1184.35 249.251 1186.66 248.657 1188.1 247.83C1189.57 247.002 1190.31 245.562 1190.31 243.511V243.08C1190.31 237.754 1188.85 233.616 1185.94 230.665C1183.06 227.714 1178.69 226.239 1172.82 226.239C1166.74 226.239 1161.97 227.57 1158.52 230.233C1155.06 232.896 1152.63 235.739 1151.23 238.761L1139.14 234.443C1141.3 229.405 1144.18 225.483 1147.78 222.676C1151.41 219.833 1155.37 217.854 1159.65 216.739C1163.97 215.587 1168.22 215.011 1172.39 215.011C1175.05 215.011 1178.11 215.335 1181.57 215.983C1185.06 216.595 1188.42 217.872 1191.66 219.815C1194.93 221.759 1197.65 224.691 1199.81 228.614C1201.97 232.536 1203.05 237.79 1203.05 244.375V299H1190.31V287.773H1189.66C1188.8 289.572 1187.36 291.497 1185.34 293.548C1183.33 295.599 1180.65 297.345 1177.3 298.784C1173.96 300.223 1169.87 300.943 1165.05 300.943ZM1166.99 289.5C1172.03 289.5 1176.28 288.51 1179.73 286.531C1183.22 284.552 1185.85 281.997 1187.61 278.866C1189.41 275.736 1190.31 272.443 1190.31 268.989V257.33C1189.77 257.977 1188.58 258.571 1186.75 259.111C1184.95 259.615 1182.86 260.064 1180.49 260.46C1178.15 260.82 1175.86 261.144 1173.63 261.432C1171.44 261.684 1169.66 261.9 1168.29 262.08C1164.98 262.511 1161.88 263.213 1159 264.185C1156.16 265.12 1153.86 266.542 1152.09 268.449C1150.37 270.32 1149.5 272.875 1149.5 276.114C1149.5 280.54 1151.14 283.886 1154.42 286.153C1157.73 288.384 1161.92 289.5 1166.99 289.5ZM1259.98 300.727C1252.21 300.727 1245.52 298.892 1239.9 295.222C1234.29 291.551 1229.97 286.495 1226.95 280.054C1223.92 273.613 1222.41 266.254 1222.41 257.977C1222.41 249.557 1223.96 242.126 1227.06 235.685C1230.19 229.207 1234.54 224.152 1240.12 220.517C1245.73 216.847 1252.28 215.011 1259.77 215.011C1265.6 215.011 1270.85 216.091 1275.53 218.25C1280.21 220.409 1284.04 223.432 1287.02 227.318C1290.01 231.205 1291.86 235.739 1292.58 240.92H1279.85C1278.87 237.142 1276.71 233.795 1273.37 230.881C1270.06 227.93 1265.6 226.455 1259.98 226.455C1255.02 226.455 1250.66 227.75 1246.92 230.341C1243.21 232.896 1240.32 236.512 1238.23 241.19C1236.18 245.832 1235.15 251.284 1235.15 257.545C1235.15 263.951 1236.16 269.528 1238.17 274.278C1240.23 279.028 1243.1 282.717 1246.81 285.344C1250.55 287.971 1254.94 289.284 1259.98 289.284C1263.29 289.284 1266.3 288.708 1269 287.557C1271.69 286.405 1273.98 284.75 1275.85 282.591C1277.72 280.432 1279.05 277.841 1279.85 274.818H1292.58C1291.86 279.712 1290.08 284.12 1287.24 288.043C1284.43 291.929 1280.71 295.024 1276.07 297.327C1271.46 299.594 1266.1 300.727 1259.98 300.727ZM1323.08 268.773L1322.87 253.011H1325.46L1361.73 216.091H1377.49L1338.84 255.17H1337.76L1323.08 268.773ZM1311.21 299V188.455H1323.94V299H1311.21ZM1363.89 299L1331.5 257.977L1340.57 249.125L1380.08 299H1363.89Z" fill="black"/>
</svg>
